<?xml version="1.0" encoding="UTF-8" standalone="no"?>
<!-- Created with Inkscape (http://www.inkscape.org/) -->

<svg
   width="60mm"
   height="60mm"
   viewBox="0 0 60 60"
   version="1.1"
   id="svg1"
   inkscape:version="1.4.3 (0d15f75, 2025-12-25)"
   sodipodi:docname="phaethon.svg"
   xmlns:inkscape="http://www.inkscape.org/namespaces/inkscape"
   xmlns:sodipodi="http://sodipodi.sourceforge.net/DTD/sodipodi-0.dtd"
   xmlns="http://www.w3.org/2000/svg"
   xmlns:svg="http://www.w3.org/2000/svg">
  <sodipodi:namedview
     id="namedview1"
     pagecolor="#ffffff"
     bordercolor="#000000"
     borderopacity="0.25"
     inkscape:showpageshadow="2"
     inkscape:pageopacity="0.0"
     inkscape:pagecheckerboard="0"
     inkscape:deskcolor="#d1d1d1"
     inkscape:document-units="mm"
     inkscape:zoom="2.8284271"
     inkscape:cx="56.391766"
     inkscape:cy="98.818173"
     inkscape:window-width="1920"
     inkscape:window-height="1009"
     inkscape:window-x="1912"
     inkscape:window-y="-8"
     inkscape:window-maximized="1"
     inkscape:current-layer="layer1" />
  <defs
     id="defs1" />
  <g
     inkscape:label="Layer 1"
     inkscape:groupmode="layer"
     id="layer1">
    <g
       id="g1"
       transform="translate(7.2964581,-0.74835468)">
      <path
         style="fill:#000000;stroke-width:1.765;stroke-dasharray:none"
         id="path3"
         d="m 24.309788,1.8630064 c -1.256218,0.61458 -2.387084,1.43891 -3.507012,2.26789 -1.057365,0.769887 -1.94763,1.705893 -2.757697,2.725139 -0.930357,1.177507 -1.572696,2.533229 -2.172988,3.8982616 -0.637488,1.476579 -1.037035,3.028056 -1.320292,4.606261 -0.177705,1.081972 -0.275749,2.178053 -0.261792,3.274624 0.01431,0.604086 0.104113,1.21022 0.407132,1.743464 0.18183,0.319979 0.439981,0.617468 0.669134,0.902369 0.476642,0.565208 1.064139,1.009751 1.70556,1.371198 3.859924,2.175115 2.435484,1.661035 4.290288,2.287025 1.026141,0.24943 2.068089,0.38912 3.120562,0.45465 1.102619,0.0435 2.206712,0.0668 3.304817,-0.0526 1.31771,-0.23517 2.498834,-0.89268 3.68812,-1.474122 1.140283,-0.549109 2.070833,-1.398577 2.920673,-2.319105 0.89421,-1.033798 1.49765,-2.25788 2.02128,-3.50902 0.52928,-1.316218 0.9287,-2.666238 1.15305,-4.066104 0.18544,-1.55643 0.0958,-3.137363 -0.097,-4.6888766 -0.18799,-1.145463 -0.83866,-2.076855 -1.61741,-2.903016 -0.63677,-0.636532 -1.3992,-1.123167 -2.1377,-1.630413 -1.540575,-1.037153 -0.31796,-0.226102 -4.049471,-2.384848 -0.366077,-0.211786 -0.747141,-0.410337 -1.141798,-0.561859 -0.514083,-0.192196 -1.058106,-0.189751 -1.598285,-0.198202 -0.584171,-0.003 -1.168352,-0.0081 -1.752531,-0.0052 -0.522653,-0.02672 -1.004538,0.146839 -1.472494,0.358497 -0.413721,0.185145 -0.738901,0.495626 -1.064477,0.801391 0,0 3.328369,2.058901 3.328369,2.058901 v 0 c 0.30354,-0.272754 0.614137,-0.531128 1.002342,-0.676246 0.450472,-0.164825 0.907791,-0.258601 1.390729,-0.230807 0.577234,-0.0019 1.15479,-0.01447 1.731746,0.01008 0.521774,0.03077 1.038646,0.0886 1.51588,0.319857 0.261419,0.128527 0.521837,0.258093 0.77697,0.398875 0.104849,0.05785 0.41615,0.237191 0.312722,0.176837 -3.256085,-1.900055 -3.926835,-2.322679 -2.589589,-1.490644 0.721416,0.522251 1.495507,0.976543 2.162712,1.571337 0.803315,0.739225 1.508165,1.615279 1.767755,2.697035 0.24901,1.514023 0.35356,3.0613006 0.15061,4.5881426 -0.20858,1.371888 -0.58452,2.699371 -1.10328,3.987979 -0.507454,1.209771 -1.106391,2.382473 -1.97211,3.380534 -0.829474,0.877731 -1.740474,1.677059 -2.836553,2.208551 -1.159732,0.578472 -2.330805,1.188437 -3.637476,1.340144 -1.090411,0.09281 -2.184641,0.05866 -3.276176,-0.0073 -1.031029,-0.08457 -2.062533,-0.220392 -3.051046,-0.538699 -1.50029,-0.602785 -0.506912,-0.230815 2.366201,1.482941 0.152614,0.091 -0.312254,-0.169814 -0.466143,-0.258672 -0.383752,-0.22158 -0.553601,-0.318709 -0.894877,-0.609034 -0.139996,-0.119097 -0.266972,-0.252701 -0.400457,-0.37905 -0.319447,-0.374041 -0.717053,-0.754933 -0.922541,-1.210834 -0.164928,-0.365918 -0.205013,-0.799113 -0.236019,-1.192122 -0.05983,-1.080937 0.02944,-2.166128 0.162266,-3.238952 0.246751,-1.55565 0.629806,-3.084524 1.252712,-4.536387 0.587135,-1.336972 1.247606,-2.6487096 2.183845,-3.7808566 0.774808,-0.999807 1.645655,-1.900785 2.65413,-2.670601 1.085136,-0.820406 2.220638,-1.658829 3.542049,-2.047872 z" />
      <path
         style="fill:#000000;stroke-width:1.765;stroke-dasharray:none"
         id="path4"
         d="m 22.667374,24.071898 c -0.275982,0.81684 -0.593749,1.62091 -0.824302,2.4523 -0.229756,0.80033 -0.331856,1.62823 -0.478438,2.44566 -0.168084,0.95934 -0.243565,1.93145 -0.373816,2.89587 -0.118907,0.75728 -0.224494,1.51456 -0.258972,2.28066 -0.01368,0.90617 -0.0013,1.81049 -0.06007,2.71526 -0.03056,0.99652 -0.135982,1.98792 -0.230105,2.97982 -0.02728,0.66797 -0.11933,1.32795 -0.211728,1.98903 -0.05472,0.48271 -0.149283,0.95946 -0.249298,1.43444 -0.0437,0.40518 -0.221345,0.76132 -0.382352,1.12697 -0.138763,0.334 -0.170841,0.69362 -0.190492,1.05073 -0.0026,0.57071 0.0031,1.14161 0.0063,1.71238 -0.02908,0.65928 0.01045,1.30731 0.122807,1.95673 0.147061,0.67676 0.205351,1.36453 0.231891,2.05506 0.0024,0.11398 0.0047,0.22795 0.007,0.34193 0,0 3.490798,1.76664 3.490798,1.76664 v 0 c -0.004,-0.11648 -0.0079,-0.23296 -0.01191,-0.34944 -0.02765,-0.70311 -0.03428,-1.41301 -0.197212,-2.10144 -0.125979,-0.62756 -0.188228,-1.24988 -0.152768,-1.8916 0.0013,-0.55977 -0.0016,-1.11965 0.01934,-1.67914 0.01,-0.31114 0.01887,-0.62787 0.126002,-0.9239 0.161857,-0.39291 0.351232,-0.77482 0.395669,-1.20557 0.107034,-0.4842 0.22094,-0.97003 0.268454,-1.46421 0.07227,-0.67434 0.16582,-1.34617 0.176837,-2.02556 0.06809,-0.99711 0.180689,-1.99044 0.226594,-2.98911 0.05769,-0.90213 0.06823,-1.80403 0.09055,-2.70756 0.03569,-0.75933 0.100521,-1.51656 0.209383,-2.26927 0.122664,-0.95789 0.220417,-1.91912 0.384083,-2.87145 0.139202,-0.80776 0.251169,-1.6214 0.473691,-2.41241 0.198242,-0.81503 0.46777,-1.61916 0.829122,-2.3764 z" />
      <path
         style="fill:#000000;stroke-width:1.765;stroke-dasharray:none"
         id="path5"
         d="m 26.063475,27.084018 c 0.06723,-0.50141 0.187235,-0.98578 0.394113,-1.44681 0.109551,-0.25643 0.05381,-0.13199 0.166674,-0.37357 0,0 -3.436096,-1.944482 -3.436096,-1.944482 v 0 c -0.119671,0.255863 -0.06434,0.127431 -0.166423,0.385112 -0.211627,0.49636 -0.333772,1.00865 -0.461272,1.53181 z" />
      <path
         style="fill:#000000;stroke-width:1.765;stroke-dasharray:none"
         id="path6"
         d="m 20.835311,30.541908 c -0.411945,0.51652 -0.910711,0.95759 -1.483018,1.28726 -0.660403,0.4167 -1.430248,0.52607 -2.190218,0.61644 -0.97802,0.0926 -1.961505,0.089 -2.942844,0.0999 -1.164392,-0.0164 -2.315861,-0.19046 -3.469003,-0.33281 -0.728408,-0.13641 -1.4766213,-0.18773 -2.1905273,-0.39786 -0.09323,-0.0275 -0.856536,-0.31009 -0.938525,-0.34026 -0.31319,-0.13418 -0.576535,-0.24197 -0.881737,-0.39223 -0.130914,-0.0645 -0.513916,-0.27654 -0.387472,-0.2037 5.3374713,3.07452 3.432289,2.05174 2.31635,1.23161 -0.61055,-0.4866 -1.120791,-1.08153 -1.605412,-1.68967 -0.550222,-0.65812 -0.90242,-1.41483 -1.166611,-2.22273 -0.296831,-0.95356 -0.284676,-1.93842 -0.166235,-2.91852 0.122136,-1.01271 0.370173,-2.002464 0.742968,-2.950844 0.193588,-0.461643 0.09233,-0.246896 0.298334,-0.646769 0,0 -3.40496,-1.933641 -3.40496,-1.933641 v 0 c -0.200999,0.437173 -0.10373,0.207343 -0.288481,0.690888 -0.36826,0.983871 -0.635579,2.001446 -0.760759,3.046494 -0.135845,1.013592 -0.212198,2.047632 0.0563,3.048142 0.245567,0.84529 0.566033,1.64948 1.109239,2.35269 0.482809,0.62931 0.977114,1.25106 1.57335,1.77952 1.662025,1.37487 3.610673,2.40644 5.6163393,3.18899 1.025986,0.35249 2.084766,0.53177 3.161356,0.6582 1.165111,0.15177 2.333156,0.29687 3.510332,0.30025 0.996035,9e-5 1.99485,-0.01 2.985096,-0.12907 0.809453,-0.1156 1.622229,-0.26098 2.309722,-0.73442 0.579303,-0.38059 1.087165,-0.8455 1.57334,-1.33845 z" />
      <path
         style="fill:#000000;stroke-width:1.765;stroke-dasharray:none"
         id="path7"
         d="m 21.092029,30.068928 c 0.35755,0.51528 0.698399,1.04192 1.048863,1.562 0.452996,0.6017 1.081757,1.03123 1.714781,1.4233 1.381276,0.50107 2.873679,2.01853 4.527367,2.35406 0.277853,0.0564 0.437484,0.0601 0.726231,0.084 0.853969,0.0524 1.709518,0.0659 2.564858,0.0702 0.787262,0.0512 1.541014,-0.0628 2.273864,-0.34901 0.8229,-0.28352 1.55544,-0.75978 2.34294,-1.11676 0.77206,-0.34134 1.47107,-0.80074 2.16631,-1.27268 0.69715,-0.46464 1.32971,-1.00726 1.8848,-1.63289 0.50414,-0.63067 0.81205,-1.20281 1.03087,-1.97581 0.17683,-0.65845 0.25209,-1.34012 0.29187,-2.01926 -0.0163,-0.64567 -0.08,-1.29254 -0.17148,-1.93212 0,0 -3.52309,-1.725013 -3.52309,-1.725013 v 0 c 0.10988,0.615843 0.15727,1.234493 0.20542,1.857953 -0.025,0.65407 -0.0646,1.31188 -0.23514,1.94714 -0.20303,0.70003 -0.45721,1.26419 -0.93861,1.82747 -0.53249,0.59957 -1.15158,1.1105 -1.8172,1.5577 -0.68836,0.45301 -1.39034,0.88338 -2.14564,1.21805 -0.765485,0.37793 -1.497023,0.8308 -2.319973,1.08283 -0.718005,0.22139 -1.450758,0.26945 -2.200097,0.23746 -0.845828,-0.005 -1.694662,-0.006 -2.535643,-0.10719 -0.335669,-0.0576 -0.395591,-0.0563 -0.706191,-0.14992 -1.341057,-0.40401 -3.359523,-1.8699 2.223399,1.44338 -0.638264,-0.34452 -1.240795,-0.74777 -1.760717,-1.2575 -0.360775,-0.49851 -0.70095,-1.01451 -1.020072,-1.54013 z" />
      <path
         style="fill:#000000;stroke-width:1.765;stroke-dasharray:none"
         id="path8"
         d="m 19.201626,50.177688 c -0.842103,0.0574 -1.680761,-0.0114 -2.519974,-0.0742 -0.976667,-0.13175 -1.961705,-0.19085 -2.945418,-0.24115 -0.85049,-0.039 -1.695929,-0.11245 -2.547197,-0.14448 -1.156478,-0.0534 -2.3144883,-0.0522 -3.4718973,-0.0616 -0.798168,-0.0478 -1.583415,10e-4 -2.36261,0.17284 -0.433075,0.0619 -0.835615,0.20311 -1.218388,0.41188 -0.406537,0.24543 -0.736351,0.59563 -0.992542,0.99204 -0.294491,0.51704 -0.465145,1.08832 -0.647901,1.65073 -0.205144,0.6009 -0.305048,1.22144 -0.349959,1.85222 0.0062,0.68831 0.07141,1.37625 0.13802,2.06116 0.07561,0.56771 0.105788,1.14099 0.206574,1.70504 0,0 3.547723,1.72005 3.547723,1.72005 v 0 c -0.124433,-0.55737 -0.179194,-1.1232 -0.255841,-1.68918 -0.07732,-0.66176 -0.09653,-1.32991 -0.154321,-1.99364 0.03678,-0.59906 0.107836,-1.19543 0.299313,-1.76783 0.175267,-0.52877 0.336481,-1.06754 0.625146,-1.54863 0.218044,-0.341 0.513784,-0.62989 0.879351,-0.81012 0.369697,-0.15975 0.753428,-0.26715 1.149443,-0.34135 0.742243,-0.15209 1.4968003,-0.15802 2.2524483,-0.14822 1.155142,0.004 2.310445,0.0208 3.464367,0.0774 0.856382,0.0542 1.709277,0.15683 2.568461,0.15997 0.984546,0.0487 1.964938,0.13496 2.944016,0.24939 0.86315,0.0555 1.726308,0.0831 2.591144,0.0925 z" />
      <path
         style="fill:#000000;stroke-width:1.765;stroke-dasharray:none"
         id="path9"
         d="m 23.525833,51.961838 c 0.08455,-0.0375 0.165558,-0.0843 0.25364,-0.11258 0.927968,-0.29755 2.001562,-0.3433 2.968556,-0.41361 1.241523,-0.0838 2.486586,-0.0499 3.728932,-0.10271 0.923028,-0.0506 1.846069,-0.0988 2.770252,-0.12121 0.88702,-0.0658 1.76093,0.0251 2.63952,0.13133 0.89415,0.13189 1.77455,0.32639 2.64674,0.56019 0.10946,0.035 0.21978,0.0674 0.3284,0.10488 0.11728,0.0405 0.53128,0.19657 0.64038,0.25219 0.1033,0.0526 0.39739,0.23898 0.29665,0.1816 -2.96181,-1.68696 -4.04253,-2.38536 -2.71527,-1.53659 0.53954,0.36006 0.98265,0.84071 1.3983,1.3338 0.44056,0.48891 0.73114,1.05802 0.93893,1.67702 0.26989,0.83752 0.34726,1.71624 0.39414,2.58977 0.037,0.53673 0.0292,1.06783 -0.0516,1.59908 -0.0373,0.24727 -0.0136,0.13316 -0.0665,0.34329 0,0 3.47633,1.88785 3.47633,1.88785 v 0 c 0.0717,-0.25466 0.045,-0.12536 0.0799,-0.38791 0.0817,-0.56558 0.11017,-1.12453 0.0427,-1.69542 -0.061,-0.8941 -0.11882,-1.79325 -0.33576,-2.66621 -0.18946,-0.65298 -0.42339,-1.28324 -0.86637,-1.81058 -0.4168,-0.51736 -0.85251,-1.03338 -1.37747,-1.44341 -1.60363,-1.18285 -3.35061,-2.28281 -5.28579,-2.80462 -0.87344,-0.21165 -1.75719,-0.37838 -2.648071,-0.49801 -0.896575,-0.1084 -1.791181,-0.15213 -2.694336,-0.0994 -0.911273,0.0314 -1.819905,0.0993 -2.729908,0.15482 -1.245772,0.0437 -2.494449,0.0119 -3.737864,0.11671 -0.976937,0.0894 -2.177986,0.17422 -3.106565,0.47373 -0.104894,0.0338 -0.202536,0.087 -0.303805,0.13049 z" />
    </g>
  </g>
</svg>
